<?xml version="1.0" ?><!DOCTYPE svg  PUBLIC '-//W3C//DTD SVG 1.1//EN'  'http://www.w3.org/Graphics/SVG/1.1/DTD/svg11.dtd'><svg baseProfile="full" height="53px" version="1.1" width="58px" xmlns="http://www.w3.org/2000/svg" xmlns:ev="http://www.w3.org/2001/xml-events" xmlns:xlink="http://www.w3.org/1999/xlink"><path d="M43.71,20.42 C44.21,20.17 44.8099999999999,20.37 45.0599999999999,20.86 C45.3099999999999,21.35 45.1089999999999,21.95 44.6199999999999,22.2 C44.48,22.28 44.319,22.31 44.1700000000001,22.31 C43.8000000000002,22.31 43.4499999999998,22.11 43.2800000000002,21.77 C43.0300000000002,21.27 43.2199999999998,20.67 43.71,20.42 ZM44.1900000000001,37.63 C44.04,37.63 43.8899999999999,37.59 43.75,37.52 C43.25,37.27 43.0500000000002,36.67 43.3090000000002,36.18 L43.3000000000002,36.18 C43.5500000000002,35.68 44.1489999999999,35.49 44.6489999999999,35.73 C45.1399999999999,35.98 45.3400000000001,36.58 45.0900000000001,37.08 C44.9099999999999,37.43 44.5599999999999,37.63 44.1900000000001,37.63 ZM45.54,33.92 C45.4699999999998,33.92 45.3899999999999,33.91 45.3099999999999,33.89 C44.7800000000002,33.77 44.4389999999999,33.23 44.569,32.69 C44.6999999999998,32.15 45.2399999999998,31.82 45.7800000000002,31.95 C46.3099999999999,32.07 46.6399999999999,32.61 46.52,33.15 C46.4099999999999,33.61 46,33.92 45.54,33.92 ZM45.5300000000002,26.02 C45.0799999999999,26.02 44.6700000000001,25.71 44.5599999999999,25.25 C44.4299999999998,24.71 44.7600000000002,24.17 45.3000000000002,24.04 C45.8299999999999,23.92 46.3699999999999,24.25 46.5,24.78 C46.6300000000001,25.32 46.3000000000002,25.86 45.7600000000002,25.99 C45.6900000000001,26.01 45.6100000000001,26.02 45.5300000000002,26.02 ZM47,28.93 C47,28.94 47,28.95 47,28.97 C47,28.98 47,28.99 47,29 C47,29.55 46.5500000000002,30 46,30 C45.4499999999998,30 45,29.55 45,29 C45,28.98 45,28.96 45,28.94 C45,28.38 45.4389999999999,27.93 45.9899999999998,27.93 C46.5500000000002,27.93 47,28.37 47,28.93 ZM42.6700000000001,39.16 C43.0900000000001,39.51 43.1489999999999,40.14 42.79,40.57 C42.5900000000001,40.8 42.3099999999999,40.92 42.0189999999998,40.92 C41.8000000000002,40.92 41.569,40.85 41.3800000000001,40.69 C40.96,40.33 40.9099999999999,39.7 41.2600000000002,39.28 C41.6089999999999,38.86 42.25,38.8 42.6700000000001,39.16 ZM41.3400000000001,17.27 C41.7600000000002,16.91 42.3899999999999,16.96 42.75,17.38 C43.0999999999999,17.8 43.0500000000002,18.43 42.6300000000001,18.79 C42.4389999999999,18.95 42.21,19.03 41.9789999999998,19.03 C41.6999999999998,19.03 41.4200000000001,18.91 41.2199999999998,18.67 C40.8589999999999,18.25 40.9200000000001,17.62 41.3400000000001,17.27 ZM39.96,42.03 C40.29,42.48 40.1999999999998,43.1 39.7600000000002,43.43 C39.5799999999999,43.57 39.3699999999999,43.63 39.1599999999999,43.63 C38.8499999999999,43.63 38.5500000000002,43.49 38.3589999999999,43.23 C38.0300000000002,42.79 38.1199999999999,42.16 38.5599999999999,41.83 C39,41.5 39.6300000000001,41.59 39.96,42.03 ZM38.3000000000002,14.73 C38.6300000000001,14.29 39.2600000000002,14.2 39.6999999999998,14.53 C40.1500000000001,14.85 40.2399999999998,15.48 39.9099999999999,15.93 C39.71,16.19 39.4099999999999,16.33 39.0999999999999,16.33 C38.8989999999999,16.33 38.6900000000001,16.27 38.5100000000002,16.13 C38.069,15.81 37.9699999999998,15.18 38.3000000000002,14.73 ZM54.9870000000001,34.307 C54.9870000000001,34.307 54.9870000000001,34.307 54.9870000000001,34.308 C53.1909999999998,35.936 50.8339999999998,36.182 49.7710000000002,36.206 C49.4810000000002,37.042 49.1390000000001,37.854 48.7530000000002,38.643 C51.6509999999998,37.915 54.636,39.446 54.7660000000001,39.515 L54.7660000000001,39.515 C54.998,39.636 55.1849999999999,39.844 55.2669999999998,40.109 C55.5630000000001,41.056 53.8139999999999,43.723 51.0839999999998,44.578 C50.241,44.842 49.3400000000001,44.937 48.4830000000002,44.937 C46.768,44.937 45.2440000000001,44.562 44.6889999999999,44.408 C44.125,44.983 43.5189999999998,45.515 42.8939999999998,46.026 C45.5030000000002,46.578 47.4119999999998,48.721 47.7550000000001,49.134 C47.8359999999998,49.218 47.9009999999998,49.315 47.9490000000001,49.423 C48.0929999999998,49.75 48.0279999999998,50.18 47.817,50.468 C47.3609999999999,51.089 45.4140000000002,52.399 43.0210000000002,52.399 C42.788,52.399 42.5509999999999,52.386 42.3099999999999,52.359 C39.6930000000002,52.069 37.2959999999998,50.2 36.6120000000001,49.625 C35.511,50.031 34.3719999999998,50.363 33.1900000000001,50.591 C33.1260000000002,50.603 33.0619999999999,50.609 32.9989999999998,50.609 C32.529,50.609 32.1100000000001,50.277 32.0189999999998,49.798 C31.913,49.256 32.2689999999998,48.732 32.8099999999999,48.627 C42.1909999999998,46.816 49,38.562 49,29 C49,21.778 45.0799999999999,15.093 38.7710000000002,11.555 L38.4589999999998,11.384 C38.4549999999999,11.382 38.4520000000002,11.378 38.4479999999999,11.375 C37.5630000000001,11.069 35.5100000000002,10.15 33.951,7.803 C32.279,5.285 33.3989999999999,1.923 33.6120000000001,1.345 C33.6390000000001,1.25200000000001 33.6790000000001,1.16399999999999 33.7310000000002,1.08099999999999 C33.9259999999999,0.78200000000001 34.2689999999998,0.59800000000001 34.6320000000001,0.624 C35.3180000000002,0.65899999999999 38.5340000000001,2.68000000000001 39.8429999999998,5.24600000000001 C40.8499999999999,7.21899999999999 40.578,9.113 40.297,10.147 C41.3009999999999,10.75 42.2420000000002,11.43 43.1239999999998,12.17 C43.1170000000002,11.943 43.0970000000002,11.72 43.1170000000002,11.486 C43.377,8.50800000000001 45.8910000000001,6.256 46.2370000000001,5.958 C46.4389999999999,5.773 46.7069999999999,5.667 47.0050000000001,5.69399999999999 C48.0940000000001,5.78899999999999 49.752,9.83500000000001 49.5160000000001,12.548 C49.3299999999999,14.688 48.1419999999998,16.131 47.337,16.884 C47.9169999999999,17.761 48.4360000000001,18.678 48.8850000000002,19.63 C50.0940000000001,17.078 52.924,15.774 53.4340000000002,15.559 C53.5340000000001,15.508 53.645,15.474 53.7600000000002,15.46 C54.1060000000002,15.418 54.4740000000002,15.571 54.6889999999999,15.858 C55.1019999999999,16.408 55.6019999999999,19.99 54.4839999999999,22.612 C53.558,24.784 51.7429999999999,25.908 50.8319999999999,26.358 C50.9380000000001,27.229 51,28.11 51,29 C51,29.052 50.9940000000001,29.103 50.9929999999999,29.156 C53.1500000000001,27.477 56.123,27.472 56.6570000000002,27.486 C56.7719999999999,27.484 56.884,27.498 56.9949999999999,27.533 C57.335,27.642 57.6010000000001,27.941 57.6759999999999,28.291 C57.8319999999999,29.011 57.1030000000001,32.387 54.9870000000001,34.307 ZM38.7719999999999,48.757 C39.6889999999999,49.395 41.107,50.214 42.5300000000002,50.372 L42.5300000000002,50.372 C43.7910000000002,50.511 44.884,50.093 45.5540000000001,49.719 C44.8159999999998,49.026 43.5509999999999,48.06 42.105,47.898 C40.826,47.755 39.598,48.279 38.7719999999999,48.757 ZM46.3290000000002,42.73 C47.451,42.935 49.1129999999998,43.101 50.4859999999999,42.67 C51.6959999999999,42.29 52.4929999999999,41.498 52.9319999999998,40.906 C51.98,40.565 50.4209999999998,40.182 49.0230000000001,40.62 C47.8000000000002,41.003 46.8910000000001,41.963 46.3290000000002,42.73 ZM38.0619999999999,6.155 C37.4200000000001,4.89699999999999 36.1060000000002,3.78299999999999 35.1889999999999,3.137 C34.989,4.136 34.8890000000001,5.59899999999999 35.6170000000002,6.696 C36.5500000000002,8.101 37.694,8.84999999999999 38.4690000000001,9.226 C38.6120000000001,8.46799999999999 38.6570000000002,7.322 38.0619999999999,6.155 ZM47.5230000000001,12.375 C47.6439999999998,10.995 47.125,9.392 46.6819999999998,8.358 C46.0279999999998,9.12799999999999 45.2260000000001,10.325 45.1089999999999,11.659 C44.9870000000001,13.068 45.6680000000001,14.401 46.1959999999999,15.204 C46.7350000000001,14.632 47.4099999999999,13.673 47.5230000000001,12.375 ZM52.6439999999998,21.827 C53.1860000000001,20.558 53.2069999999999,19.012 53.127,17.973 C52.268,18.503 51.1410000000001,19.388 50.6179999999999,20.613 C50.0770000000002,21.883 50.279,23.31 50.5230000000001,24.238 C51.2150000000001,23.797 52.134,23.025 52.6439999999998,21.827 ZM51.9859999999999,30.902 C50.9670000000001,31.826 50.5549999999998,33.214 50.3879999999999,34.162 C51.2979999999998,34.058 52.6309999999999,33.744 53.6439999999998,32.825 C54.6770000000001,31.888 55.2339999999999,30.484 55.5,29.537 C54.491,29.645 53.018,29.967 51.9859999999999,30.902 ZM31.8989999999999,13.25 C31.8400000000001,13.25 31.79,13.24 31.73,13.23 C31.1799999999998,13.14 30.819,12.62 30.9099999999999,12.08 C31.0100000000002,11.53 31.5189999999998,11.17 32.069,11.26 C32.6089999999999,11.35 32.9789999999998,11.87 32.8899999999999,12.42 C32.8000000000002,12.9 32.3800000000001,13.25 31.8989999999999,13.25 ZM28.0189999999998,13.03 C28,13.03 27.9789999999998,13.03 27.96,13.03 C27.4400000000001,13.03 27,12.62 26.96,12.09 C26.9299999999998,11.54 27.3499999999999,11.07 27.8989999999999,11.03 C28.4499999999998,11 28.9299999999998,11.42 28.96,11.97 C28.9899999999998,12.52 28.569,13 28.0189999999998,13.03 ZM24.3699999999999,13.68 C24.27,13.71 24.1700000000001,13.72 24.0799999999999,13.72 C23.6489999999999,13.72 23.25,13.45 23.1199999999999,13.01 C22.96,12.48 23.2600000000002,11.93 23.79,11.77 C24.319,11.61 24.8800000000001,11.91 25.0300000000002,12.44 C25.1889999999999,12.96 24.8899999999999,13.52 24.3699999999999,13.68 ZM15.3589999999999,39.2 C15.1889999999999,39.31 15,39.37 14.8099999999999,39.37 C14.4899999999998,39.37 14.1700000000001,39.21 13.9789999999998,38.92 C13.6700000000001,38.46 13.8000000000002,37.84 14.2600000000002,37.53 C14.7199999999998,37.23 15.3400000000001,37.35 15.6489999999999,37.81 C15.9499999999998,38.27 15.819,38.9 15.3589999999999,39.2 ZM15.319,18.85 C15.7800000000002,19.16 15.9099999999999,19.78 15.6089999999999,20.24 C15.4099999999999,20.53 15.0999999999999,20.69 14.7689999999998,20.69 C14.5799999999999,20.69 14.3899999999999,20.64 14.2199999999998,20.53 C13.7600000000002,20.22 13.6300000000001,19.6 13.9389999999999,19.14 C14.2399999999998,18.68 14.8589999999999,18.55 15.319,18.85 ZM13.3499999999999,22.28 C13.8699999999999,22.47 14.1399999999999,23.04 13.9499999999998,23.56 C13.8000000000002,23.97 13.4099999999999,24.22 13.0100000000002,24.22 C12.8899999999999,24.22 12.7800000000002,24.2 12.6700000000001,24.16 C12.1489999999999,23.97 11.8800000000001,23.4 12.069,22.88 C12.2600000000002,22.36 12.8299999999999,22.09 13.3499999999999,22.28 ZM12.2199999999998,26.07 C12.7689999999998,26.13 13.1599999999999,26.63 13.0999999999999,27.18 C13.04,27.69 12.6089999999999,28.06 12.1089999999999,28.06 C12.069,28.06 12.0300000000002,28.06 12,28.06 C11.4499999999998,27.99 11.0500000000002,27.5 11.1089999999999,26.95 C11.1799999999998,26.4 11.6700000000001,26.01 12.2199999999998,26.07 ZM12.6889999999999,33.91 C13.1999999999998,33.72 13.7800000000002,33.98 13.9699999999998,34.5 C14.1599999999999,35.02 13.8899999999999,35.6 13.3699999999999,35.78 C13.2600000000002,35.83 13.1489999999999,35.84 13.0300000000002,35.84 C12.6199999999999,35.84 12.2399999999998,35.59 12.0900000000001,35.19 C11.8989999999999,34.67 12.1700000000001,34.1 12.6889999999999,33.91 ZM11.1199999999999,31.12 C11.0599999999999,30.57 11.4499999999998,30.08 12,30.01 C12.5500000000002,29.95 13.0500000000002,30.34 13.1089999999999,30.89 C13.1700000000001,31.44 12.7800000000002,31.94 12.23,32 C12.1999999999998,32.01 12.1599999999999,32.01 12.1199999999999,32.01 C11.6199999999999,32.01 11.1799999999998,31.63 11.1199999999999,31.12 ZM17.3000000000002,17.66 C17.04,17.66 16.7689999999998,17.56 16.5799999999999,17.35 C16.1999999999998,16.95 16.21,16.32 16.6089999999999,15.94 C16.6089999999999,15.94 16.6089999999999,15.94 16.6199999999999,15.94 C17.0189999999998,15.56 17.6489999999999,15.58 18.0300000000002,15.98 C18.4099999999999,16.38 18.3890000000001,17.01 17.9899999999998,17.39 C17.8000000000002,17.57 17.5500000000002,17.66 17.3000000000002,17.66 ZM18.0799999999999,42.07 C17.8800000000001,42.28 17.6199999999999,42.38 17.3499999999999,42.38 C17.1089999999999,42.38 16.8589999999999,42.29 16.6700000000001,42.11 C16.2600000000002,41.73 16.2399999999998,41.1 16.6199999999999,40.7 C17,40.3 17.6300000000001,40.28 18.04,40.66 L18.0300000000002,40.66 C18.4400000000001,41.03 18.46,41.66 18.0799999999999,42.07 ZM19.5520000000001,11.375 C19.5479999999998,11.377 19.5459999999998,11.382 19.5410000000002,11.384 L19.2310000000002,11.555 C12.9200000000001,15.093 9,21.778 9,29 C9,38.562 15.8090000000002,46.816 25.1889999999999,48.627 C25.7310000000002,48.731 26.087,49.256 25.9810000000002,49.798 C25.8899999999999,50.277 25.471,50.609 25.0010000000002,50.609 C24.9389999999999,50.609 24.8739999999998,50.603 24.8110000000001,50.591 C23.6280000000002,50.363 22.4879999999998,50.031 21.3870000000002,49.625 C20.7040000000002,50.2 18.3069999999998,52.069 15.6900000000001,52.359 C15.4490000000001,52.386 15.212,52.399 14.9780000000001,52.399 C12.585,52.399 10.6390000000001,51.089 10.183,50.468 C9.971,50.18 9.90700000000015,49.75 10.0509999999999,49.422 C10.098,49.315 10.165,49.217 10.2449999999999,49.134 C10.5889999999999,48.72 12.498,46.578 15.1060000000002,46.026 C14.4810000000002,45.515 13.875,44.983 13.3110000000001,44.408 C12.7559999999999,44.562 11.232,44.937 9.51699999999983,44.937 C8.65900000000011,44.937 7.75900000000001,44.843 6.91499999999996,44.578 C4.18499999999995,43.723 2.43600000000015,41.056 2.73199999999997,40.109 C2.81500000000005,39.844 3.00300000000016,39.636 3.23500000000013,39.515 L3.23399999999992,39.515 C3.36499999999978,39.446 6.3449999999998,37.915 9.24699999999984,38.643 C8.86099999999988,37.854 8.51999999999998,37.042 8.22899999999981,36.206 C7.16600000000017,36.183 4.80999999999995,35.937 3.01299999999992,34.307 C0.89600000000019,32.387 0.16800000000012,29.011 0.32400000000007,28.291 C0.39899999999989,27.941 0.66499999999996,27.642 1.00500000000011,27.533 C1.11599999999999,27.498 1.22699999999986,27.484 1.34299999999985,27.486 C1.88200000000006,27.468 4.85300000000007,27.478 7.00700000000006,29.156 C7.00700000000006,29.104 7,29.053 7,29 C7,28.11 7.0619999999999,27.229 7.16800000000012,26.358 C6.25700000000006,25.909 4.44200000000001,24.784 3.51499999999987,22.612 C3.51499999999987,22.612 3.51499999999987,22.612 3.51499999999987,22.611 C2.39600000000019,19.989 2.89800000000014,16.407 3.3119999999999,15.858 C3.52500000000009,15.571 3.89300000000003,15.417 4.23999999999978,15.46 C4.35600000000022,15.474 4.46599999999989,15.508 4.5659999999998,15.559 C5.07499999999982,15.774 7.9050000000002,17.078 9.11499999999978,19.629 C9.56399999999985,18.678 10.0830000000001,17.761 10.663,16.884 C9.85800000000017,16.131 8.67000000000007,14.688 8.48399999999992,12.548 C8.24699999999984,9.83500000000001 9.9050000000002,5.78899999999999 10.9949999999999,5.69399999999999 C11.2890000000002,5.667 11.5619999999999,5.773 11.7629999999999,5.958 C12.1109999999999,6.25700000000001 14.623,8.50899999999999 14.8829999999998,11.485 C14.9029999999998,11.72 14.8829999999998,11.943 14.8760000000002,12.17 C15.7579999999998,11.43 16.6990000000001,10.75 17.703,10.148 C17.4209999999998,9.113 17.1489999999999,7.21899999999999 18.1559999999999,5.24600000000001 C19.48,2.65299999999999 23.002,0.285 23.8800000000001,0.732 C24.1260000000002,0.857 24.2979999999998,1.072 24.3780000000002,1.316 C24.5599999999999,1.803 25.7510000000002,5.24000000000001 24.049,7.803 C22.4899999999998,10.149 20.4369999999999,11.069 19.5520000000001,11.375 ZM12.4479999999999,49.721 C13.1179999999999,50.094 14.21,50.514 15.4699999999998,50.372 C16.8939999999998,50.213 18.3139999999999,49.394 19.23,48.756 C18.4059999999999,48.277 17.181,47.758 15.8939999999998,47.898 C14.4589999999998,48.059 13.1889999999999,49.027 12.4479999999999,49.721 ZM8.97800000000007,40.62 C7.59099999999989,40.187 6.02599999999984,40.569 5.06800000000021,40.908 C5.50799999999981,41.5 6.30400000000009,42.291 7.51299999999992,42.67 C8.88799999999992,43.101 10.5509999999999,42.935 11.6709999999998,42.73 C11.1089999999999,41.963 10.201,41.003 8.97800000000007,40.62 ZM6.01299999999992,30.902 C4.98900000000003,29.974 3.51299999999992,29.65 2.5010000000002,29.54 C2.76699999999983,30.487 3.32400000000007,31.889 4.35600000000022,32.826 C5.36499999999978,33.74 6.70100000000002,34.055 7.61400000000003,34.16 C7.44900000000007,33.215 7.03699999999981,31.831 6.01299999999992,30.902 ZM7.38200000000006,20.613 C6.85899999999992,19.388 5.73199999999997,18.503 4.87300000000005,17.974 C4.79199999999992,19.012 4.8130000000001,20.558 5.35399999999981,21.827 C5.87199999999984,23.039 6.78600000000006,23.807 7.47499999999991,24.244 C7.7199999999998,23.316 7.92500000000018,21.886 7.38200000000006,20.613 ZM11.317,8.358 C10.875,9.39099999999999 10.3560000000002,10.995 10.4769999999999,12.375 L10.4769999999999,12.375 C10.5909999999999,13.69 11.2640000000001,14.645 11.8020000000001,15.211 C12.3310000000001,14.412 13.0140000000001,13.079 12.8910000000001,11.659 C12.7739999999999,10.325 11.9720000000002,9.12899999999999 11.317,8.358 ZM22.8110000000001,3.136 C21.8939999999998,3.78299999999999 20.5799999999999,4.89699999999999 19.9369999999999,6.155 C19.3420000000001,7.322 19.3879999999999,8.46899999999999 19.5309999999999,9.226 C20.3040000000001,8.851 21.4490000000001,8.102 22.3829999999998,6.696 C23.1109999999999,5.59899999999999 23.011,4.136 22.8110000000001,3.136 ZM24.4299999999998,44.34 C24.96,44.49 25.2600000000002,45.05 25.0999999999999,45.58 C24.9699999999998,46.02 24.569,46.3 24.1399999999999,46.3 C24.0500000000002,46.3 23.9499999999998,46.28 23.8589999999999,46.25 C23.3299999999999,46.1 23.0300000000002,45.54 23.1799999999998,45.01 C23.3400000000001,44.48 23.8989999999999,44.18 24.4299999999998,44.34 ZM21.0189999999998,42.87 C21.5,43.15 21.6599999999999,43.76 21.3899999999999,44.24 C21.1999999999998,44.56 20.8589999999999,44.74 20.5189999999998,44.74 C20.3499999999999,44.74 20.1799999999998,44.69 20.02,44.6 C19.54,44.33 19.3800000000001,43.72 19.6489999999999,43.24 C19.9299999999998,42.76 20.54,42.59 21.0189999999998,42.87 ZM19.96,13.43 C20.4299999999998,13.16 21.0500000000002,13.32 21.319,13.8 C21.5999999999999,14.27 21.4400000000001,14.89 20.96,15.16 C20.8099999999999,15.25 20.6300000000001,15.3 20.46,15.3 C20.1199999999999,15.3 19.7800000000002,15.12 19.5999999999999,14.8 C19.319,14.32 19.4789999999998,13.71 19.96,13.43 ZM34.77,12.97 C34.9789999999998,12.46 35.569,12.23 36.0799999999999,12.45 C36.5799999999999,12.66 36.819,13.25 36.5999999999999,13.76 C36.4400000000001,14.14 36.069,14.37 35.6799999999998,14.37 C35.5500000000002,14.37 35.4200000000001,14.34 35.29,14.28 L35.29,14.29 C34.7800000000002,14.07 34.5500000000002,13.48 34.77,12.97 ZM36.6599999999999,44.21 C36.8800000000001,44.72 36.6500000000001,45.31 36.1399999999999,45.53 C36.0100000000002,45.58 35.8800000000001,45.61 35.75,45.61 C35.3589999999999,45.61 34.9899999999998,45.38 34.8299999999999,45.01 C34.6089999999999,44.5 34.8400000000001,43.91 35.3499999999999,43.69 C35.8499999999999,43.47 36.4400000000001,43.71 36.6599999999999,44.21 ZM25,36.328 C24.3919999999998,35.815 24,35.075 24,34.241 L24,33 L24,32.583 C24,31.644 23.8690000000001,31.166 23.5320000000002,30.881 C21.4409999999998,29.104 20.364,26.515 20.578,23.775 C20.8919999999998,19.744 24.0300000000002,16.497 28.04,16.053 C30.4490000000001,15.789 32.8470000000002,16.552 34.634,18.153 C36.4229999999998,19.754 37.4479999999999,22.049 37.4479999999999,24.448 C37.4479999999999,26.94 36.3519999999999,29.293 34.4400000000001,30.903 C34.123,31.17 34,31.623 34,32.516 L34,33 L34,34.241 C34,35.075 33.6080000000002,35.815 33,36.328 L33,38.103 C33,40.252 31.2060000000001,42 29,42 C26.7939999999999,42 25,40.252 25,38.103 L25,36.328 ZM27,38.103 C27,39.149 27.8969999999999,40 29,40 C30.1019999999999,40 31,39.149 31,38.103 L31,37.035 L27,37.035 L27,38.103 ZM26,34.241 C26,34.679 26.415,35.035 26.9259999999999,35.035 L31.0740000000001,35.035 C31.585,35.035 32,34.679 32,34.241 L32,34 L26,34 L26,34.241 ZM32.0129999999999,32 C32.0650000000001,31.069 32.297,30.094 33.1509999999998,29.374 C34.6109999999999,28.144 35.4479999999999,26.349 35.4479999999999,24.448 C35.4479999999999,22.617 34.665,20.865 33.3000000000002,19.643 C31.915,18.403 30.1199999999999,17.834 28.261,18.041 C25.2530000000002,18.374 22.808,20.905 22.5720000000001,23.93 C22.4090000000001,26.023 23.2310000000002,28 24.8270000000002,29.356 C25.6819999999998,30.082 25.9250000000002,31.06 25.9830000000002,32 L32.0129999999999,32 ZM23.9160000000002,23.853 C23.9499999999998,23.589 24.0059999999999,23.332 24.078,23.083 C24.2330000000002,22.554 24.788,22.249 25.319,22.405 C25.8499999999999,22.56 26.1529999999998,23.116 25.998,23.646 C25.953,23.796 25.9209999999998,23.951 25.9000000000001,24.11 C25.835,24.614 25.404,24.981 24.9090000000001,24.981 C24.866,24.981 24.8229999999999,24.979 24.7800000000002,24.973 C24.232,24.902 23.846,24.401 23.9160000000002,23.853 ZM26.018,20.337 C26.9050000000002,19.694 27.9560000000001,19.354 29.056,19.354 C29.6080000000002,19.354 30.056,19.802 30.056,20.355 C30.056,20.907 29.6080000000002,21.354 29.056,21.354 C28.3800000000001,21.354 27.7359999999999,21.563 27.1909999999998,21.957 C27.0140000000001,22.085 26.8090000000002,22.147 26.6060000000002,22.147 C26.2959999999998,22.147 25.9899999999998,22.003 25.7950000000001,21.733 C25.471,21.286 25.5700000000002,20.661 26.018,20.337 ZM28.0839999999998,44.971 C28.6410000000001,45.013 29.0599999999999,45.481 29.0300000000002,46.03 C29,46.56 28.5599999999999,46.97 28.0300000000002,46.97 C28.0100000000002,46.97 27.9899999999998,46.97 27.9789999999998,46.97 C27.9789999999998,46.97 27.9789999999998,46.97 27.9699999999998,46.97 C27.4200000000001,46.94 27,46.47 27.0300000000002,45.92 C27.0590000000002,45.372 27.527,44.945 28.0839999999998,44.971 ZM28.0900000000001,44.97 C28.0880000000002,44.97 28.0859999999998,44.971 28.0839999999998,44.971 C28.0819999999999,44.971 28.0810000000001,44.97 28.0799999999999,44.97 L28.0900000000001,44.97 ZM31.79,44.76 C32.3400000000001,44.66 32.8589999999999,45.02 32.9499999999998,45.57 C33.0500000000002,46.11 32.6889999999999,46.63 32.1399999999999,46.73 C32.0799999999999,46.74 32.02,46.74 31.9699999999998,46.74 C31.4899999999998,46.74 31.069,46.4 30.98,45.92 C30.8899999999999,45.37 31.25,44.85 31.79,44.76 Z " fill="rgb( 80, 80, 112 )"/></svg>