<?xml version="1.0" encoding="utf-8"?><!DOCTYPE svg PUBLIC "-//W3C//DTD SVG 1.1//EN" "http://www.w3.org/Graphics/SVG/1.1/DTD/svg11.dtd"><svg version="1.1" baseProfile="full" xmlns="http://www.w3.org/2000/svg" xmlns:xlink="http://www.w3.org/1999/xlink" xmlns:ev="http://www.w3.org/2001/xml-events"   height="52px"   width="52px" ><path fill="rgb( 80, 80, 112 )" d="M26,52 C11.663,52 0,40.336 0,26 C0,11.663 11.663,0 26,0 C40.336,0 52,11.663 52,26 C52,40.336 40.336,52 26,52 ZM26,2 C12.767,2 2,12.766 2,26 C2,39.233 12.767,50 26,50 C39.233,50 50,39.233 50,26 C50,12.766 39.233,2 26,2 ZM29.848,29.53 C29.767,29.659 29.659,29.767 29.53,29.848 C29.53,29.848 13.53,39.848 13.53,39.848 C13.366,39.95 13.182,40 13,40 C12.742,40 12.486,39.9 12.293,39.707 C11.963,39.378 11.905,38.865 12.152,38.47 C12.152,38.47 22.152,22.47 22.152,22.47 C22.232,22.341 22.341,22.232 22.47,22.152 C22.47,22.152 38.47,12.152 38.47,12.152 C38.866,11.905 39.379,11.965 39.707,12.293 C40.036,12.622 40.095,13.135 39.848,13.53 C39.848,13.53 29.848,29.53 29.848,29.53 ZM16.144,35.855 C16.144,35.855 28.274,28.274 28.274,28.274 C28.274,28.274 28.274,28.274 28.274,28.274 C28.274,28.274 23.725,23.725 23.725,23.725 C23.725,23.725 23.725,23.726 23.725,23.726 C23.725,23.726 16.144,35.855 16.144,35.855 Z "/></svg>