<?xml version="1.0" encoding="utf-8"?><!DOCTYPE svg PUBLIC "-//W3C//DTD SVG 1.1//EN" "http://www.w3.org/Graphics/SVG/1.1/DTD/svg11.dtd"><svg version="1.1" baseProfile="full" xmlns="http://www.w3.org/2000/svg" xmlns:xlink="http://www.w3.org/1999/xlink" xmlns:ev="http://www.w3.org/2001/xml-events"   height="57px"   width="56px" ><path fill="rgb( 80, 80, 112 )" d="M55,56.994 C55,56.994 31,56.994 31,56.994 C30.4480000000001,56.994 30,56.546 30,55.994 C30,55.994 30,31.994 30,31.994 C30,31.442 30.4480000000001,30.994 31,30.994 C31,30.994 55,30.994 55,30.994 C55.5519999999999,30.994 56,31.442 56,31.994 C56,31.994 56,55.994 56,55.994 C56,56.546 55.5519999999999,56.994 55,56.994 ZM54,32.994 C54,32.994 32,32.994 32,32.994 C32,32.994 32,54.994 32,54.994 C32,54.994 54,54.994 54,54.994 C54,54.994 54,32.994 54,32.994 ZM55,26.994 C55,26.994 31,26.994 31,26.994 C30.4480000000001,26.994 30,26.546 30,25.994 C30,25.994 30,1.99300000000005 30,1.99300000000005 C30,1.44100000000003 30.4480000000001,0.99300000000005 31,0.99300000000005 C31,0.99300000000005 55,0.99300000000005 55,0.99300000000005 C55.5519999999999,0.99300000000005 56,1.44100000000003 56,1.99300000000005 C56,1.99300000000005 56,25.994 56,25.994 C56,26.546 55.5519999999999,26.994 55,26.994 ZM54,2.99300000000005 C54,2.99300000000005 32,2.99300000000005 32,2.99300000000005 C32,2.99300000000005 32,24.994 32,24.994 C32,24.994 54,24.994 54,24.994 C54,24.994 54,2.99300000000005 54,2.99300000000005 ZM25,56.994 C25,56.994 1,56.994 1,56.994 C0.44800000000009,56.994 0,56.546 0,55.994 C0,55.994 0,31.994 0,31.994 C0,31.442 0.44800000000009,30.994 1,30.994 C1,30.994 25,30.994 25,30.994 C25.5519999999999,30.994 26,31.442 26,31.994 C26,31.994 26,55.994 26,55.994 C26,56.546 25.5519999999999,56.994 25,56.994 ZM24,32.994 C24,32.994 2,32.994 2,32.994 C2,32.994 2,54.994 2,54.994 C2,54.994 24,54.994 24,54.994 C24,54.994 24,32.994 24,32.994 ZM25,26.994 C25,26.994 1,26.994 1,26.994 C0.44800000000009,26.994 0,26.546 0,25.994 C0,25.994 0,1.99300000000005 0,1.99300000000005 C0,1.44100000000003 0.44800000000009,0.99300000000005 1,0.99300000000005 C1,0.99300000000005 25,0.99300000000005 25,0.99300000000005 C25.5519999999999,0.99300000000005 26,1.44100000000003 26,1.99300000000005 C26,1.99300000000005 26,25.994 26,25.994 C26,26.546 25.5519999999999,26.994 25,26.994 ZM24,2.99300000000005 C24,2.99300000000005 2,2.99300000000005 2,2.99300000000005 C2,2.99300000000005 2,24.994 2,24.994 C2,24.994 24,24.994 24,24.994 C24,24.994 24,2.99300000000005 24,2.99300000000005 Z "/></svg>