<?xml version="1.0" encoding="utf-8"?><!DOCTYPE svg PUBLIC "-//W3C//DTD SVG 1.1//EN" "http://www.w3.org/Graphics/SVG/1.1/DTD/svg11.dtd"><svg version="1.1" baseProfile="full" xmlns="http://www.w3.org/2000/svg" xmlns:xlink="http://www.w3.org/1999/xlink" xmlns:ev="http://www.w3.org/2001/xml-events"   height="57px"   width="56px" ><path fill="rgb( 80, 80, 112 )" d="M55,56.994 C55,56.994 1,56.994 1,56.994 C0.44800000000009,56.994 0,56.546 0,55.994 C0,55.994 0,1.99300000000005 0,1.99300000000005 C0,1.44100000000003 0.44800000000009,0.99300000000005 1,0.99300000000005 C1,0.99300000000005 55,0.99300000000005 55,0.99300000000005 C55.5519999999999,0.99300000000005 56,1.44100000000003 56,1.99300000000005 C56,1.99300000000005 56,55.994 56,55.994 C56,56.546 55.5519999999999,56.994 55,56.994 ZM2,54.994 C2,54.994 54,54.994 54,54.994 C54,54.994 54,2.99300000000005 54,2.99300000000005 C54,2.99300000000005 2,2.99300000000005 2,2.99300000000005 C2,2.99300000000005 2,54.994 2,54.994 Z "/></svg>