<?xml version="1.0" ?><!DOCTYPE svg  PUBLIC '-//W3C//DTD SVG 1.1//EN'  'http://www.w3.org/Graphics/SVG/1.1/DTD/svg11.dtd'><svg baseProfile="full" height="57px" version="1.1" width="56px" xmlns="http://www.w3.org/2000/svg" xmlns:ev="http://www.w3.org/2001/xml-events" xmlns:xlink="http://www.w3.org/1999/xlink"><path d="M55,56.994 C55,56.994 45,56.994 45,56.994 C44.4480000000001,56.994 44,56.546 44,55.994 C44,55.994 44,45.994 44,45.994 C44,45.442 44.4480000000001,44.994 45,44.994 C45,44.994 55,44.994 55,44.994 C55.5519999999999,44.994 56,45.442 56,45.994 C56,45.994 56,55.994 56,55.994 C56,56.546 55.5519999999999,56.994 55,56.994 ZM54,46.994 C54,46.994 46,46.994 46,46.994 C46,46.994 46,54.994 46,54.994 C46,54.994 54,54.994 54,54.994 C54,54.994 54,46.994 54,46.994 ZM55,34.994 C55,34.994 45,34.994 45,34.994 C44.4480000000001,34.994 44,34.546 44,33.994 C44,33.994 44,23.994 44,23.994 C44,23.441 44.4480000000001,22.994 45,22.994 C45,22.994 55,22.994 55,22.994 C55.5519999999999,22.994 56,23.441 56,23.994 C56,23.994 56,33.994 56,33.994 C56,34.546 55.5519999999999,34.994 55,34.994 ZM54,24.994 C54,24.994 46,24.994 46,24.994 C46,24.994 46,32.994 46,32.994 C46,32.994 54,32.994 54,32.994 C54,32.994 54,24.994 54,24.994 ZM55,12.9930000000001 C55,12.9930000000001 45,12.9930000000001 45,12.9930000000001 C44.4480000000001,12.9930000000001 44,12.546 44,11.9930000000001 C44,11.9930000000001 44,1.99300000000005 44,1.99300000000005 C44,1.44100000000003 44.4480000000001,0.99300000000005 45,0.99300000000005 C45,0.99300000000005 55,0.99300000000005 55,0.99300000000005 C55.5519999999999,0.99300000000005 56,1.44100000000003 56,1.99300000000005 C56,1.99300000000005 56,11.9930000000001 56,11.9930000000001 C56,12.546 55.5519999999999,12.9930000000001 55,12.9930000000001 ZM54,2.99300000000005 C54,2.99300000000005 46,2.99300000000005 46,2.99300000000005 C46,2.99300000000005 46,10.9930000000001 46,10.9930000000001 C46,10.9930000000001 54,10.9930000000001 54,10.9930000000001 C54,10.9930000000001 54,2.99300000000005 54,2.99300000000005 ZM33,56.994 C33,56.994 23,56.994 23,56.994 C22.4480000000001,56.994 22,56.546 22,55.994 C22,55.994 22,45.994 22,45.994 C22,45.442 22.4480000000001,44.994 23,44.994 C23,44.994 33,44.994 33,44.994 C33.5519999999999,44.994 34,45.442 34,45.994 C34,45.994 34,55.994 34,55.994 C34,56.546 33.5519999999999,56.994 33,56.994 ZM32,46.994 C32,46.994 24,46.994 24,46.994 C24,46.994 24,54.994 24,54.994 C24,54.994 32,54.994 32,54.994 C32,54.994 32,46.994 32,46.994 ZM33,34.994 C33,34.994 23,34.994 23,34.994 C22.4480000000001,34.994 22,34.546 22,33.994 C22,33.994 22,23.994 22,23.994 C22,23.441 22.4480000000001,22.994 23,22.994 C23,22.994 33,22.994 33,22.994 C33.5519999999999,22.994 34,23.441 34,23.994 C34,23.994 34,33.994 34,33.994 C34,34.546 33.5519999999999,34.994 33,34.994 ZM32,24.994 C32,24.994 24,24.994 24,24.994 C24,24.994 24,32.994 24,32.994 C24,32.994 32,32.994 32,32.994 C32,32.994 32,24.994 32,24.994 ZM33,12.9930000000001 C33,12.9930000000001 23,12.9930000000001 23,12.9930000000001 C22.4480000000001,12.9930000000001 22,12.546 22,11.9930000000001 C22,11.9930000000001 22,1.99300000000005 22,1.99300000000005 C22,1.44100000000003 22.4480000000001,0.99300000000005 23,0.99300000000005 C23,0.99300000000005 33,0.99300000000005 33,0.99300000000005 C33.5519999999999,0.99300000000005 34,1.44100000000003 34,1.99300000000005 C34,1.99300000000005 34,11.9930000000001 34,11.9930000000001 C34,12.546 33.5519999999999,12.9930000000001 33,12.9930000000001 ZM32,2.99300000000005 C32,2.99300000000005 24,2.99300000000005 24,2.99300000000005 C24,2.99300000000005 24,10.9930000000001 24,10.9930000000001 C24,10.9930000000001 32,10.9930000000001 32,10.9930000000001 C32,10.9930000000001 32,2.99300000000005 32,2.99300000000005 ZM11,56.994 C11,56.994 1,56.994 1,56.994 C0.44800000000009,56.994 0,56.546 0,55.994 C0,55.994 0,45.994 0,45.994 C0,45.442 0.44800000000009,44.994 1,44.994 C1,44.994 11,44.994 11,44.994 C11.5519999999999,44.994 12,45.442 12,45.994 C12,45.994 12,55.994 12,55.994 C12,56.546 11.5519999999999,56.994 11,56.994 ZM10,46.994 C10,46.994 2,46.994 2,46.994 C2,46.994 2,54.994 2,54.994 C2,54.994 10,54.994 10,54.994 C10,54.994 10,46.994 10,46.994 ZM11,34.994 C11,34.994 1,34.994 1,34.994 C0.44800000000009,34.994 0,34.546 0,33.994 C0,33.994 0,23.994 0,23.994 C0,23.441 0.44800000000009,22.994 1,22.994 C1,22.994 11,22.994 11,22.994 C11.5519999999999,22.994 12,23.441 12,23.994 C12,23.994 12,33.994 12,33.994 C12,34.546 11.5519999999999,34.994 11,34.994 ZM10,24.994 C10,24.994 2,24.994 2,24.994 C2,24.994 2,32.994 2,32.994 C2,32.994 10,32.994 10,32.994 C10,32.994 10,24.994 10,24.994 ZM11,12.9930000000001 C11,12.9930000000001 1,12.9930000000001 1,12.9930000000001 C0.44800000000009,12.9930000000001 0,12.546 0,11.9930000000001 C0,11.9930000000001 0,1.99300000000005 0,1.99300000000005 C0,1.44100000000003 0.44800000000009,0.99300000000005 1,0.99300000000005 C1,0.99300000000005 11,0.99300000000005 11,0.99300000000005 C11.5519999999999,0.99300000000005 12,1.44100000000003 12,1.99300000000005 C12,1.99300000000005 12,11.9930000000001 12,11.9930000000001 C12,12.546 11.5519999999999,12.9930000000001 11,12.9930000000001 ZM10,2.99300000000005 C10,2.99300000000005 2,2.99300000000005 2,2.99300000000005 C2,2.99300000000005 2,10.9930000000001 2,10.9930000000001 C2,10.9930000000001 10,10.9930000000001 10,10.9930000000001 C10,10.9930000000001 10,2.99300000000005 10,2.99300000000005 Z " fill="rgb( 80, 80, 112 )"/></svg>